<svg xmlns="http://www.w3.org/2000/svg" viewBox="0 0 75 75"><title>Artboard 8 copy 2</title><path d="M62.31,41.36a14.19,14.19,0,0,0-6.22,1.44,13.63,13.63,0,0,1-1.4-3.22,8.92,8.92,0,0,1-.12-2.72,26.32,26.32,0,0,1,.81-2.92c0-.13-.15-.72-1.53-.73s-2.57.27-2.71.63a15.05,15.05,0,0,0-.58,2c-.23,1.25-2.76,5.73-4.2,8.08a8.32,8.32,0,0,1-1-2.36,8.55,8.55,0,0,1-.13-2.71A23.38,23.38,0,0,1,46.1,36c0-.12-.16-.71-1.54-.72s-2.57.26-2.71.62-.29,1.22-.57,2.05-3.64,8.31-4.52,10.24c-.45,1-.84,1.78-1.12,2.32h0a.36.36,0,0,1,0,.1c-.24.47-.38.72-.38.72h0c-.18.34-.39.65-.49.65a4.27,4.27,0,0,1,0-2.13c.5-2.6,1.69-6.64,1.68-6.78s.23-.78-.78-1.14a1.26,1.26,0,0,0-1.42.24c-.08,0-.15.21-.15.21s1.1-4.54-2.08-4.54c-2,0-4.72,2.17-6.07,4.13-.86.46-2.68,1.45-4.62,2.52l-2.22,1.22-.15-.17c-3.85-4.1-11-7-10.65-12.51.11-2,.81-7.28,13.64-13.68,10.57-5.21,19-3.76,20.44-.56,2.08,4.56-4.51,13.05-15.43,14.28-4.16.46-6.35-1.14-6.9-1.75s-.67-.66-.88-.54-.12.76,0,1.08a6.44,6.44,0,0,0,3.94,3.1c2,.66,6.89,1,12.8-1.26C42.52,31.12,47.69,24,46.17,18s-11.56-8-21.06-4.67c-5.65,2-11.77,5.17-16.18,9.29C3.7,27.55,2.87,31.81,3.21,33.59,4.43,39.91,13.15,44,16.64,47.08l-.48.26c-1.74.87-8.4,4.35-10,8-1.88,4.17.3,7.16,1.74,7.56,4.48,1.24,9.09-1,11.56-4.68s2.17-8.49,1-10.68a.18.18,0,0,0-.05-.08l1.37-.8c.89-.53,1.77-1,2.52-1.42a16.8,16.8,0,0,0-.89,4.57c-.19,2.36.78,5.42,2.05,6.63a2.28,2.28,0,0,0,1.65.54c1.48,0,2.15-1.23,2.89-2.69.9-1.78,1.72-3.85,1.72-3.85s-1,5.59,1.74,5.59c1,0,2-1.3,2.48-2v0L36,54l.17-.26v0c.4-.7,1.3-2.29,2.64-4.94,1.74-3.42,3.4-7.68,3.4-7.68a23.61,23.61,0,0,0,.67,2.77A26,26,0,0,0,44.3,47c-.4.57-.65.88-.65.88h0c-.33.43-.68.9-1.07,1.35a39.83,39.83,0,0,0-3.22,4,1.09,1.09,0,0,0,.3,1.48,2.76,2.76,0,0,0,1.68.28,7.65,7.65,0,0,0,2.52-.58,8.49,8.49,0,0,0,2.18-1.14,4.89,4.89,0,0,0,2.08-4.28,8.83,8.83,0,0,0-.79-3l.36-.53A58.2,58.2,0,0,0,51.47,39a22.37,22.37,0,0,0,.66,2.78,18.67,18.67,0,0,0,1.22,2.76,11.78,11.78,0,0,0-3.66,4.73c-.8,2.28-.18,3.31,1,3.55a3.61,3.61,0,0,0,1.83-.37,8.45,8.45,0,0,0,2.32-1.2c1.34-1,2.64-2.37,2.56-4.24a8,8,0,0,0-.58-2.51,13.27,13.27,0,0,1,6.67-.77c6,.71,7.15,4.44,6.93,6a4,4,0,0,1-1.9,2.69c-.41.26-.55.35-.51.54s.25.26.6.21A4.64,4.64,0,0,0,71.85,49C72,45.35,68.52,41.32,62.31,41.36ZM16.22,56.9c-2,2.15-4.74,3-5.93,2.28S9.51,55.25,11.94,53a31.49,31.49,0,0,1,4.66-3.48l1.23-.74.14-.08h0l.3-.18A8.57,8.57,0,0,1,16.22,56.9Zm14.44-9.82c-.69,1.68-2.14,6-3,5.75s-1.22-3.46-.16-6.69a15.46,15.46,0,0,1,2.35-4.31c1.08-1.2,2.27-1.6,2.56-1.11S31.08,46,30.66,47.08Zm11.91,5.7c-.29.15-.57.25-.69.17s.12-.25.12-.25,1.5-1.6,2.09-2.33c.34-.43.74-.93,1.16-1.49V49C45.25,51,43.4,52.25,42.57,52.78Zm9.19-2.1c-.22-.15-.18-.65.54-2.22a8.22,8.22,0,0,1,2-2.63,3.48,3.48,0,0,1,.2,1.15A3.78,3.78,0,0,1,51.76,50.68Z" style="fill:#cd6799"/></svg>