<svg xmlns="http://www.w3.org/2000/svg" viewBox="0 0 75 75"><title>ers-icon-webpack</title><path d="M37.5,1.67,69.17,19.58V55.42L37.5,73.33,5.83,55.42V19.58Z" style="fill:#fff"/><path d="M63.52,54.18l-25,14.13v-11l15.56-8.56,9.41,5.43Zm1.71-1.54V23.1l-9.14,5.28v19l9.14,5.27ZM11.39,54.18l25,14.13v-11L20.79,48.75ZM9.67,52.64V23.1l9.14,5.28v19Zm1.08-31.45L36.35,6.7V17.33l-16.4,9-.14.07Zm53.41,0L38.55,6.7V17.33l16.41,9,.13.07,9.07-5.23Z" style="fill:#8ed6fb"/><path d="M36.35,54.8,21,46.36V29.64L36.35,38.5Zm2.2,0L53.9,46.37V29.64L38.55,38.5ZM22,27.71l15.41-8.47,15.41,8.47L37.45,36.6,22,27.71Z" style="fill:#1c78c0"/></svg>