<svg xmlns="http://www.w3.org/2000/svg" viewBox="0 0 75 75"><title>ers-icon-chartjs</title><path d="M65.49,37.75c-9.6.19-7.6,6.26-14.37,7.8S43.17,28.77,36.3,28.77s-8.4,17.82-17,30.05l-.25.35L37.5,69.82l28-16.16Z" style="fill:#36a2eb"/><path d="M65.49,37.19c-3.21-4.12-5.39-8.86-10.08-8.86-8.3,0-6.12,13.54-15.29,13.54S30,27.3,19.59,41a73.8,73.8,0,0,0-8.07,13.83l26,15,28-16.16Z" style="fill:#ffce56"/><g style="opacity:0.800000011920929"><path d="M9.51,42.8C12.66,34.08,14,27,20,27c9.17,0,11.36,25.77,19.22,23.15s7-16.6,19.21-16.6c2.33,0,4.71,1.42,7,3.73V53.66l-28,16.16-28-16.16Z" style="fill:#fe6184"/></g><path d="M37.5,71.84,7.76,54.67V20.33L37.5,3.16,67.24,20.33V54.67ZM11.26,52.65,37.5,67.8,63.74,52.65V22.35L37.5,7.2,11.26,22.35Z" style="fill:#e7e9ed"/></svg>