<svg xmlns="http://www.w3.org/2000/svg" viewBox="0 0 75 75">
  <defs>
    <linearGradient id="a" x1="15.5" x2="59.5" y1="53.1" y2="9.1" gradientUnits="userSpaceOnUse">
      <stop offset="0" stop-color="#fff" stop-opacity="0"/>
      <stop offset="1" stop-color="#fff" stop-opacity=".3"/>
    </linearGradient>
  </defs>
  <ellipse cx="37.1" cy="70.5" opacity=".1" rx="25.4" ry="3.1"/>
  <circle cx="37.5" cy="31.1" r="31.1" fill="#d9822b"/>
  <rect width="30" height="39.7" x="19" y="9.9" fill="#fff" opacity=".8" rx=".6" ry=".6" transform="rotate(-2 34 29.7)"/>
  <path fill="#8a9ba8" d="M20.9 17.6l13.8-.6v.5l-13.8.6zm14.3-.4l6-.2.1.5-6 .2zm6.7-.2l4.5-.2v.5l-4.5.2zm-21.1 2.3l13.8-.4v.5l-13.8.4zm14.5-.3l6-.3.1.5-6 .2zm6.6-.3l4.5-.2v.5l-4.5.2zm-21 2.4l13.8-.4v.5l-13.8.4zm14.4-.5l6-.2.1.5-6 .2zm6.7-.2l4.5-.2v.5L42 21zm-21.1 2.4l13.8-.4v.5l-13.8.4zm14.5-.5l6-.2.1.5-6 .2zM42 22h4.5v.4l-4.5.2zm-21 2.5l13.8-.4v.5L21 25zm14.4-.5l6-.2.1.5-6 .2zm6.6-.2l4.6-.2v.5l-4.5.2zm-20.9 2.4l13.8-.4v.5l-13.8.4zm14.4-.5l6-.2.1.5-6 .2zm6.7-.2l4.5-.2v.5l-4.5.2zM21.1 28l13.8-.5v.5l-13.8.4zm14.5-.6l6-.2.1.5-6 .2zm6.6-.2l4.5-.2v.5l-4.5.2zm-20.9 2.4l13.8-.6v.5l-13.7.6zm14.3-.4l6-.2.1.5-6 .2zm6.7-.2l4.5-.2v.5l-4.5.2zm-21 2.3l13.8-.4v.5l-13.8.4zm14.4-.3l6-.3.1.5-6 .2zm6.8-.5l4.5-.2v.5l-4.5.2zm-21 2.5l13.8-.5v.5l-13.8.6zm14.2-.4l6.1-.2v.5l-6 .2zm6.7-.2l4.5-.2v.5l-4.5.2zm-21 2.4l13.8-.4v.5l-13.8.4zm14.4-.5l6.1-.2v.5l-6 .2zm6.7-.3H47v.4l-4.5.2zm-21.1 2.5l13.8-.4v.5l-13.8.4zm14.5-.5l6.1-.2v.5l-6 .2zm6.8-.4l4.5-.2v.5l-4.5.2zm-21.2 2.6l13.8-.4v.5l-13.8.4zm14.4-.5l6.1-.2v.5l-6 .2zm6.7-.2l4.5-.2v.5l-4.5.2zm-21 2.5l13.8-.5v.5l-13.8.4zm14.4-.6l6-.2.1.5-6 .2zm6.8-.4l4.5-.2v.5l-4.5.2zm-21.2 2.6l13.8-.4v.4l-13.8.5zm14.4-.5l6-.2.1.5-6 .2zm6.7-.2l4.5-.2v.5l-4.5.2z" opacity=".5"/>
  <path fill="#5c7080" d="M39.5 43l8-.2v1.6l-8 .2z"/>
  <rect width="39.7" height="30" x="20.6" y="18.2" fill="#fff" rx=".6" ry=".6" transform="rotate(-73.9 40.4 33.2)"/>
  <path fill="#8a9ba8" d="M31.4 18l.1-.4 13.3 3.8-.2.5zm13.8 4.1l.2-.4 5.8 1.6-.1.5zm6.5 1.9l.2-.5 4.3 1.2-.1.5zM31 19.8v-.5L44.4 23v.5zm13.8 3.9l.2-.5 5.8 1.7-.1.5zm6.4 1.9l.2-.5 4.3 1.3-.2.5zm-20.7-4.3v-.5L44 24.7l-.2.4zm13.8 4.1l.1-.5 6 1.7-.2.5zm6.5 1.8l.1-.5 4.4 1.3-.2.5zM30.1 23l.1-.4 13.3 3.9-.1.4zm13.8 4l.1-.4 5.9 1.7-.2.5zm6.4 1.9l.1-.5 4.3 1.2v.5zm-20.7-4.1l.1-.5L43 28l-.2.5zm13.8 3.9v-.5l6 1.7-.2.5zm6.4 1.8V30l4.4 1.3-.1.5zM29 26.3l.2-.4 13.3 3.8-.2.5zm14 4v-.5l6 1.7-.2.5zm6.3 1.9l.2-.5 4.3 1.3-.2.5zM28.5 28l.2-.5 13.2 3.9-.1.4zm13.9 4l.2-.5 5.8 1.7-.1.5zm6.6 2v-.6l4.4 1.3-.1.5zm-20.9-4.4l.2-.5L41.5 33l-.1.5zM42 33.7l.1-.5 5.9 1.7-.2.4zm6.4 1.8l.1-.5 4.4 1.2-.2.5zm-20.7-4.1l.1-.5 13.3 3.8-.2.5zm13.8 3.8l.1-.5 5.9 1.7-.1.5zm6.4 1.9l.1-.5 4.3 1.3-.1.5zM27.2 33l.1-.5 13.3 3.8-.2.5zM41 36.9l.2-.5 5.9 1.7-.2.5zm6.4 1.9l.2-.5 4.3 1.3-.1.4zm-20.8-4.2l.2-.5L40 38v.5zm13.9 4l.2-.5 5.8 1.7-.1.5zm6.5 1.8v-.5l4.4 1.2-.1.5zm-20.7-4.1l.1-.5 13.3 3.9-.1.5zm13.8 3.9l.1-.4 5.9 1.7-.1.4zm6.4 1.8l.1-.4 4.4 1.2-.2.5zm-20.8-4.2l.2-.4L39 41.2l-.1.5zm13.9 4l.1-.5 5.9 1.7-.1.5zm6.4 1.9l.1-.5 4.3 1.3-.1.5zm-20.7-4.2l.1-.5 13.3 4-.2.5zm13.9 4l.1-.5 5.9 1.7-.2.5zm6.3 1.9l.2-.5 4.3 1.3-.1.4zm-20.7-4.2v-.5l13.3 3.8v.5zm13.8 3.9l.2-.4 5.8 1.7-.1.4zm6.5 2.1l.2-.5 4.3 1.3-.2.5z" opacity=".5"/>
  <path fill="#5c7080" d="M41 49l.4-1.5 7.7 2.2-.4 1.5z"/>
  <circle cx="37.5" cy="31.1" r="31.1" fill="url(#a)"/>
</svg>