<svg xmlns="http://www.w3.org/2000/svg" viewBox="0 0 75 75">
  <ellipse cx="38.6" cy="67.9" opacity=".1" rx="25.4" ry="3.1"/>
  <path fill="#106ba3" d="M51 43.5l-6.7.1-3.8 5.3 4.8.3a2.3 2.3 0 0 1-1.3-2 2.4 2.4 0 0 1 4.8 0 2.3 2.3 0 0 1-1.6 2h.3l5-3.6z"/>
  <path fill="#137cbd" d="M51 42.8h-6.7l-3.8 5.3 4.8.3a2.2 2.2 0 0 1-1.3-2 2.4 2.4 0 0 1 4.8 0 2.3 2.3 0 0 1-1.6 2.1h.3l5-3.7z"/>
  <path fill="#a66321" d="M1.3 50l.6.6S38 54 42.3 54 8.2 49.4 8.2 49.4"/>
  <path fill="#d9822b" d="M39.3 53.4l-.1-.1h-.3l-.2-.2h-.2l-.2-.1-.1-.1-.3-.2a5.6 5.6 0 0 1-1.1-1.2l-.4-.4-5.8-.5 1.6-3.3-1-.8-2 4-7.2-1 4-8-1-.9-4.4 8.8-7.2-.7L19.5 36h.4l-3-2.8-7.2-.7L1.3 50l39.9 4a7.7 7.7 0 0 1-2-.5zM4.9 47.8L11 35.2l7.2.7-6.1 12.6z"/>
  <path fill="#a66321" d="M18.2 35.9l-7.2-.7-6.1 12.6 7.2.7 6.1-12.6"/>
  <path fill="#bf7326" d="M20 36.1l-.4-.1-6.2 12.7 7.3.7 4.2-8.8-4.9-4.5"/>
  <path fill="#f29d49" d="M25.9 41.5l-3.9 8 7.2.7 2-3.9-5.3-4.8"/>
  <path fill="#ffb366" d="M32.1 47.1l-1.5 3.3 5.8.5-4.3-3.8"/>
  <path fill="#0a6640" d="M28.8 15.3h.8s15.5 15.5 18.5 17.1-17-10.7-17-10.7"/>
  <path fill="#0e5a8a" d="M51.8 5.9l.7.9.5 4.1-.5 4.4"/>
  <path fill="#0f9960" d="M55.6 44l-.9 1.8a14.6 14.6 0 0 1-8.2 7.4 11.7 11.7 0 0 1-4.9.7h.2a13.6 13.6 0 0 0 9.8-3.5 12.2 12.2 0 0 0 4-6.4M20.8 33l-4.5-4.1L28 18.6l4.5 4.1L20.8 33m8-17.7l-16.2 14 4.3 4 3 2.8 5 4.5 1 1 5.3 4.7 1 .9 4.2 3.8.4.3a5.6 5.6 0 0 1-.8-2v-.5l-.3-2.4-3.1-2.8 2.6-2.3-.2-1.4-3.3 2.9-4.6-4.2 7.1-6.2-.1-1.3-7.8 6.8-4.6-4.2 11.6-10-.5-4.7-4-3.7"/>
  <path fill="#0a6640" d="M28.1 18.6L16.3 28.8l4.5 4.2 11.8-10.3-4.5-4.1"/>
  <path fill="#0d8050" d="M33.3 23.6L21.7 33.7l4.5 4.2 7.9-6.8-.8-7.5"/>
  <path fill="#15b371" d="M34.2 32.4l-7.1 6.2 4.5 4.2 3.4-2.9-.8-7.5"/>
  <path fill="#3dcc91" d="M35.1 41.2l-2.6 2.3 3.1 2.9-.5-5.2"/>
  <path fill="#137cbd" d="M36.7 51.3a4.6 4.6 0 0 0 .4.4 7 7 0 0 1-.4-.5zM41 35.8l.7-1.4-4.4 1.5-.6-6.4 8.9-3.3.7-1.5-9.8 3.6-.6-6.4 14.3-5.2 2.3-4.6-.7-6.2-19.6 7.2.6 5.9.5 4.6.8 7.5.1 1.4.8 7.4.1 1.3.6 5.2.2 2.4a8.3 8.3 0 0 1 1-4.4l1-2.4-.5-4.9zm-5.3-15.1l-.6-6.5L49.4 9l.7 6.4zm10.8 32.5a2.2 2.2 0 0 1 .2-.1l-.3.1zm-6 .5l.7.2h.8-.6a10 10 0 0 1-1-.2zm13.8-7l.3-.6.1-.3-.4 1z"/>
  <path fill="#0e5a8a" d="M49.4 9l-14.3 5.2.6 6.5L50 15.5 49.4 9"/>
  <path fill="#106ba3" d="M50.2 16.7l-14.3 5.2.6 6.4 9.8-3.6 3.9-7.9v-.1"/>
  <path fill="#2b95d6" d="M45.6 26.2l-8.9 3.3.6 6.4 4.3-1.5 4-8.2"/>
  <path fill="#48aff0" d="M40.9 35.8l-3.5 1.3.5 4.9 3-6.2"/>
  <path fill="#a82a2a" d="M73.5 7.1l.2.5-17.9 37.2c-.2.5-2.8 8.2-11 9l.6-1.7"/>
  <path fill="#db3737" d="M55.7 5.4L52.5 12l-2.3 4.7-3.9 8-.7 1.5-4 8L41 36l-3 6-1.1 2.4a8.3 8.3 0 0 0-1 4.5.6.6 0 0 1 0 .1v.2a5.4 5.4 0 0 0 2 3.4l.3.1h.1l.2.2h.2l.2.2h.4a7.8 7.8 0 0 0 2.2.6c5 .5 10.8-3 13.1-7.7l.2-.3.9-1.9 18-36.7zm-7.6 40a3.9 3.9 0 0 1-3.5 2.2 1.6 1.6 0 0 1-1.3-2.6 3.9 3.9 0 0 1 3.5-2.1 1.6 1.6 0 0 1 1.3 2.6zm6.4-4.2l-13-1.3 3.4-7 13 1.3zm4-8.3l-13-1.3 3.4-7 13 1.3zm4-8.3l-13-1.3 3.4-7 13 1.3zM53.6 15L57 8l13 1.2-3.4 7z"/>
  <path fill="#a82a2a" d="M70 9.2L57 8l-3.4 7 13 1.3L70 9.2"/>
  <path fill="#c23030" d="M66 17.6l-13-1.3-3.4 7 12.9 1.3 3.5-7"/>
  <path fill="#f55656" d="M61.9 25.9l-13-1.3-3.4 7 13 1.3 3.4-7"/>
  <path fill="#ff7373" d="M57.9 34.2l-13-1.3-3.4 7 13 1.3 3.4-7"/>
  <path fill="#a82a2a" d="M43.8 45.6a3.9 3.9 0 0 1 3.5-2 1.9 1.9 0 0 1 1 .2 1.6 1.6 0 0 0-1.5-.9 3.9 3.9 0 0 0-3.5 2.1 1.7 1.7 0 0 0 .4 2.3 2 2 0 0 1 0-1.7z"/>
</svg>