<svg xmlns="http://www.w3.org/2000/svg" viewBox="0 0 75 75"><title>ers-icon-bootstrap</title><rect x="3.94" y="3.94" width="67.15" height="67.15" rx="7.39" ry="7.39" style="fill:#563d7c;opacity:0.2"/><path d="M60.5,3.9A10.63,10.63,0,0,1,71.1,14.5v46A10.63,10.63,0,0,1,60.5,71.1h-46A10.63,10.63,0,0,1,3.9,60.5v-46A10.63,10.63,0,0,1,14.5,3.9h46m0-.9h-46A11.54,11.54,0,0,0,3,14.5v46A11.54,11.54,0,0,0,14.5,72h46A11.54,11.54,0,0,0,72,60.5v-46A11.54,11.54,0,0,0,60.5,3Z" style="fill:#563d7c"/><path d="M25.18,56.16V20.41h14c6.12,0,10.26,3.57,10.26,8.92a8,8,0,0,1-6.17,7.8v.2c4.86.62,8,4,8,8.8,0,6.29-4.51,10-12.11,10Zm4.46-20.34h7.14c5.27,0,8.15-2.11,8.15-6,0-3.54-2.43-5.5-6.77-5.5H29.64Zm8.82,16.4c5.38,0,8.2-2.18,8.2-6.31S43.74,39.66,38,39.66h-8.4V52.22Z" style="fill:#563d7c"/></svg>