<svg xmlns="http://www.w3.org/2000/svg" viewBox="0 0 75 75"><title>ers-icon-fontawesome</title><path d="M64.13,3.19H10.87a7.72,7.72,0,0,0-7.68,7.68V64.13a7.72,7.72,0,0,0,7.68,7.68H64.13a7.72,7.72,0,0,0,7.68-7.68V10.87A7.72,7.72,0,0,0,64.13,3.19Zm-7,43.55c0,.64-.55.92-1.19,1.19A21,21,0,0,1,47.75,50c-4.12,0-6-2.57-11-2.57a26.23,26.23,0,0,0-10.34,2.66c-.19.09-.37.09-.55.18v7a1.83,1.83,0,0,1-.09.73v.18a3.08,3.08,0,0,1-6-.91V23.77a5.11,5.11,0,1,1,8.23-4,4.84,4.84,0,0,1-2,4v2.84a3,3,0,0,0,.82-.37,25.61,25.61,0,0,1,9.43-2.19,24.77,24.77,0,0,1,9.33,2.1,4.84,4.84,0,0,0,2,.37c3.47,0,7.32-2.47,8.23-2.47a1.32,1.32,0,0,1,1.37,1.19Z" style="fill:#228ae6"/></svg>