<svg xmlns="http://www.w3.org/2000/svg" viewBox="0 0 75 75"><title>ers-icon-izitoast</title><path d="M65.06,9.6c-19-8.33-45-3-59.15,12.2a9.46,9.46,0,0,0,7.18,15.93L20,71.28,71.68,60.63,64.77,27.09A9.48,9.48,0,0,0,65.06,9.6Z" style="fill:#9b765d"/><path d="M22.46,67.55l-6.81-33L13,34.57a6.22,6.22,0,0,1-4.47-1.68A6.33,6.33,0,0,1,8.22,24c6.41-6.86,15.67-11.82,26.09-14S55.19,8.73,63.79,12.5a6.32,6.32,0,0,1-.19,11.66l-2.46,1,6.81,33Z" style="fill:#9b765d"/><path d="M64.83,8.48c-19-8.33-45-3-59.15,12.2a9.46,9.46,0,0,0,7.18,15.93l6.91,33.55L71.45,59.51,64.54,26a9.48,9.48,0,0,0,.29-17.49Z" style="fill:#c79f83"/><path d="M22.23,66.43,15.42,33.38l-2.65.07a6.25,6.25,0,0,1-4.48-1.68A6.34,6.34,0,0,1,8,22.83C14.39,16,23.66,11,34.07,8.86S55,7.61,63.56,11.38A6.32,6.32,0,0,1,63.37,23l-2.46,1,6.81,33Z" style="fill:#f6e3ce"/><path d="M18.65,26.87a3.43,3.43,0,1,1,4,2.52A3.32,3.32,0,0,1,18.65,26.87Zm1.11,4.88,6.52-1.34L30.5,50.87,24,52.21Z" style="fill:#ffeda1"/><path d="M32.7,46.79l7.26-14,0-.13-9.48,2-1-4.89,17.08-3.52.82,4L40.84,43.5l0,.13L50,41.74l1,4.89L33.42,50.27Z" style="fill:#ffeda1"/><path d="M48.65,20.68a3.43,3.43,0,1,1,4,2.53A3.3,3.3,0,0,1,48.65,20.68Zm1.1,4.89,6.53-1.34L60.5,44.68,54,46Z" style="fill:#ffeda1"/><path d="M18.53,26.29a3.43,3.43,0,1,1,4,2.53A3.32,3.32,0,0,1,18.53,26.29Zm1.11,4.89,6.52-1.35,4.22,20.46-6.53,1.35Z" style="fill:#fbaf14"/><path d="M32.59,46.22l7.25-14,0-.12-9.49,2-1-4.89L46.4,25.66l.82,4-6.5,13.28,0,.13,9.17-1.89,1,4.89L33.3,49.69Z" style="fill:#fbaf14"/><path d="M48.53,20.1a3.43,3.43,0,1,1,4,2.53A3.31,3.31,0,0,1,48.53,20.1ZM49.63,25l6.53-1.34,4.22,20.46-6.53,1.34Z" style="fill:#fbaf14"/><path d="M50.79,30.6l3.06,14.85,6.53-1.34L57.16,28.52C54.93,29.13,52.8,29.83,50.79,30.6Zm-26.94,21,6.53-1.35-1.2-5.81a53.37,53.37,0,0,0-5.5,6.29Zm16.87-8.71,4.94-10.09A64,64,0,0,0,36.8,38.1l-4.21,8.12.71,3.47,17.63-3.63-1-4.89-9.17,1.89Z" style="fill:#e79102"/></svg>