<svg xmlns="http://www.w3.org/2000/svg" viewBox="0 0 75 75">
  <ellipse cx="37.5" cy="68.9" opacity=".1" rx="30.9" ry="3.8"/>
  <path d="M6.1 37.4l-.2 1.2L37 64.8l.2-1.1L6.1 37.4z"/>
  <path fill="#5c7080" d="M37.2 26L6.1 37.4l31.1 26.3 31.1-11.4L37.2 26z"/>
  <path fill="#394b59" d="M6.9 32.9l-1 5.7L37 64.8l1-5.6L6.9 32.9z"/>
  <path fill="#5c7080" d="M38 21.6L6.9 32.9 38 59.2l31.1-11.4L38 21.6z"/>
  <path fill="#394b59" d="M68.9 49l.2-1.2L38 59.2l-.2 1.2-.6 3.3-.2 1.1 31.1-11.3.2-1.2-30.2 11.1.6-3.4 30.2-11z"/>
  <path fill="#ebf1f5" d="M67.7 49.4l-.5 2.7-29 10.6.5-2.7 29-10.6z"/>
  <path d="M19.9 37.4l-3.8 3.5 3.3 2.8 28.7 4.1 9.5-9.4-6-5.3" opacity=".1"/>
  <path fill="#5c7080" d="M58 26l-26.6-3.1L18.7 40l27.2 3.2 11.8-15.6.3-1.6z"/>
  <path fill="#738694" d="M18.7 40l.5 1.1 27.2 3.1-.5-1L18.7 40z"/>
  <path fill="#d8e1e8" d="M44.4 37.8l1.7 4 12-16-2-3.9-2.9 2.9-9 12.6"/>
  <path fill="#ebf1f5" d="M20.5 38.8L18.9 35l25.6 3 1.6 3.8-25.6-3z"/>
  <path fill="#5c7080" d="M57 22.5c-.5-1.2-1.4-.4-1.6 0l-2.4 3-9.3 12.6.5 1 9.3-12.6 2-2.5c.5-.7 1-.2 1.2.2l.5 1 .4.9a2 2 0 0 1-.3 1.9l-1 1.3-10.4 13.9.5 1 10.3-13.9 1-1.5a3.1 3.1 0 0 0 .5-3.6L57 22.5z"/>
  <path fill="#738694" d="M16.5 35l.5 1 27.2 3.2-.5-1.1L16.5 35z"/>
  <path fill="#bfccd6" d="M56.1 21.4a2.2 2.2 0 0 0-.8-.5 2.4 2.4 0 0 0-.6 0l-25.5-3L16.5 35l27.2 3.2 11.4-15.4c1-1.4 1.7-.7 1.9-.4a2.8 2.8 0 0 0-.9-1zm.9 1a1.3 1.3 0 0 1 0 .1z"/>
  <path d="M31.9 18.2h-1.1l11.6 11.4L53 25.5l1.8-2.2" opacity=".1"/>
  <path d="M23.3 10.1l-.1.7L43 27.6l.2-.8-19.9-16.7z"/>
  <path fill="#0a6640" d="M43.2 2.9l-19.9 7.2 19.9 16.7L63 19.6 43.2 2.9z"/>
  <path fill="#0a6640" d="M23.8 7.3l-.6 3.5L43 27.6l.7-3.6L23.8 7.3z"/>
  <path fill="#0f9960" d="M43.7 0L23.8 7.3 43.7 24l19.8-7.3L43.7 0z"/>
  <path fill="#0f9960" d="M63.4 17.5l.1-.8L43.7 24l-.2.7-.3 2.1-.2.8 19.9-7.3.1-.7-19.3 7 .4-2.1 19.3-7z"/>
  <path fill="#ebf1f5" d="M62.6 17.8l-.3 1.7-18.5 6.7.3-1.7 18.5-6.7z"/>
  <path fill="#3dcc91" d="M40.4 1l-2.2.8L58 18.5l2.2-.8L40.4 1z"/>
  <path fill="#3dcc91" d="M60.2 17.7v.2l-2.2.8v-.2l2.2-.8z"/>
  <path fill="#0a6640" d="M38.2 1.8V2L58 18.7v-.2L38.2 1.8z"/>
  <path fill="#3dcc91" d="M58 18.7l-.6 3.6 2.2-.8.6-3.6-2.2.8z"/>
  <path fill="#0a6640" d="M58 18.5h-.2l-.7 3.9.3-.1"/>
</svg>