<svg xmlns="http://www.w3.org/2000/svg" viewBox="0 0 75 75">
  <defs>
    <linearGradient id="a" x1="46.4" x2="61.8" y1="18.6" y2="3.2" gradientUnits="userSpaceOnUse">
      <stop offset="0" stop-color="#5c7080"/>
      <stop offset="1" stop-color="#a7b6c2"/>
    </linearGradient>
  </defs>
  <ellipse cx="37.1" cy="68.9" opacity=".1" rx="30.9" ry="3.8"/>
  <circle cx="54.1" cy="10.9" r="10.9" fill="url(#a)"/>
  <path fill="#006837" d="M58 30.6l-17.9 2.2 10.8 14.4L68.8 45 58 30.6z"/>
  <path fill="#bfccd6" d="M58 30.6l-17.9 2.2 10.8 14.4L68.8 45 58 30.6z"/>
  <path fill="#8a9ba8" d="M40.1 32.8L33 49.2l10.8 14.5 7.1-16.5-10.8-14.4z"/>
  <path fill="#5c7080" d="M50.9 47.2l-7.1 16.5 17.9-2.2L68.8 45l-17.9 2.2z"/>
  <path fill="#137cbd" d="M17.5 9.8l-12 33.9L26 25.4 17.5 9.8z"/>
  <path fill="#0e5a8a" d="M30.4 44.9l20.5-18.2L26 25.4 5.5 43.7l24.9 1.2z"/>
  <path fill="#48aff0" d="M17.5 9.8l33.4 16.9L26 25.4 17.5 9.8z"/>
</svg>