<svg xmlns="http://www.w3.org/2000/svg" viewBox="0 0 75 75"><title>ers-icon-gulp</title><path d="M43.77,18.65l1.37-5.42,7.58-8h0l0,0h0c.16-.24-.12-.78-.66-1.24s-1.15-.68-1.34-.46l-8,8.51L41.1,18.52q-1.8-.06-3.6-.06c-8.47,0-15.34,1-15.34,2.16S29,22.77,37.5,22.77s15.34-1,15.34-2.15C52.84,19.74,49.11,19,43.77,18.65Zm-.8,3a7.55,7.55,0,0,1-1.17.07c-.88,0-1.5,0-1.74-.23a.39.39,0,0,1-.11-.27c0-.15.11-.24.25-.3l.14.21c-.06,0-.09,0-.09.07a3.79,3.79,0,0,0,1.57.19,3.83,3.83,0,0,0,1.51-.18s-.06-.07-.17-.1l.14-.2c.17.05.33.16.33.34S43.23,21.65,43,21.69Z" style="fill:#d34a47"/><path d="M26.38,55.57l2,3.36.72,10.58c0,1.13,3.74,2,8.35,2s8.36-.92,8.36-2l.65-10.89,1.81-3.08a31.59,31.59,0,0,1-11,1.68A31.48,31.48,0,0,1,26.38,55.57Z" style="fill:#d34a47"/><path d="M22.27,21.84,24,38.72c.93-2.64,3.14-8,6.62-7.81,1.58.09,3.7,3.13,1.89,3.24-.77,0-.85-1.52-1.75-1.75a2.71,2.71,0,0,0-2.16.94c-1.17,1.15-3.7,5.69-3.37,7.95.43,2.88,4-1,4.58-2.16.43-.81.71-3.22,1.64-3s-.08,2.74-.75,4.94c-.76,2.47-1.15,5.07-2.1,4.77s.59-3.48.54-4c-.89.82-2.53,2.89-4.62,1.87l1.09,10.48s2.89,2.29,11.6,2.29,11.71-2.25,11.71-2.25l1.35-12.15c-1.1,1.08-4.6,3-4.83.84-.18-1.74,3.79-4.25,2.77-4.33-2.19.13-3.28,2.57-4.38,5.13-.41.94-1.79,4.94-2.7,4.45s1.18-3.78,1.76-5.74c-.67.5-3.14,2.42-3.78.62-1,.87-3.21,1.34-3-.94-.55,1-1.77,2.31-3.24,1.75C31,43.11,34.05,37,34.8,37.29s-.15,1.7-.39,2.25c-.52,1.19-1.12,2.69-.72,3,.69.53,2.58-2,2.62-2,.35-.46,1.36-3.51,2.16-3.16s-2,4.37-1,5.17c.22.16,1.09-.1,1.62-.67.34-.37.23-1.2,1.37-3.93s2.17-6.13,3-5.87.14,2-.14,2.66C42,37.74,39.7,42.78,40.78,42.4a4.51,4.51,0,0,0,2.69-1.64c1.06-1.23,1-3.27,1.71-3.22s.59.69.42,1.19c.69-.79,3.28-2.46,3.91-.81.74,2-3.71,4.78-2.6,4.64a6.72,6.72,0,0,0,3.58-2.26l2.06-18.5s-2.08,1.71-15.25,1.71S22.27,21.84,22.27,21.84Z" style="fill:#d34a47"/></svg>